<svg xmlns="http://www.w3.org/2000/svg" xmlns:xlink="http://www.w3.org/1999/xlink" width="25.53" height="22.906" viewBox="0 0 25.53 22.906">
  <defs>
    <style>
      .cls-1 {
        fill: #fff;
        fill-rule: evenodd;
        filter: url(#filter);
      }
    </style>
    <filter id="filter" x="3035.13" y="148.375" width="25.53" height="22.906" filterUnits="userSpaceOnUse">
      <feFlood result="flood" flood-color="#707070"/>
      <feComposite result="composite" operator="in" in2="SourceGraphic"/>
      <feBlend result="blend" in2="SourceGraphic"/>
    </filter>
  </defs>
  <path id="Services_Icon" data-name="Services Icon" class="cls-1" d="M3041.97,171.285a0.635,0.635,0,0,1-.22-0.037,0.688,0.688,0,0,1-.46-0.629l-0.12-5.856-5.68-2.872a0.216,0.216,0,0,1-.05-0.033,0.369,0.369,0,0,1-.07-0.047,0.689,0.689,0,0,1-.23-0.358c-0.01-.025-0.01-0.05-0.02-0.075a0.746,0.746,0,0,1,.1-0.468h0.01c0-.008.01-0.016,0.01-0.024h0a0.755,0.755,0,0,1,.26-0.218l24.17-12.223a0.771,0.771,0,0,1,.12-0.051,0.718,0.718,0,0,1,.11-0.023,0.652,0.652,0,0,1,.22.01,0.581,0.581,0,0,1,.21.086,0.034,0.034,0,0,0,.01,0,0.84,0.84,0,0,1,.17.158,0.742,0.742,0,0,1,.11.2l0.03,0.124a0.648,0.648,0,0,1-.01.24,0.7,0.7,0,0,1-.05.142l-9.06,21.385a0.7,0.7,0,0,1-.12.2h0c-0.01.009-.01,0.018-0.02,0.027h0a0.687,0.687,0,0,1-.45.2h-0.02a0.015,0.015,0,0,1-.01,0,0.662,0.662,0,0,1-.39-0.124l-5.12-3.571-2.91,3.595A0.679,0.679,0,0,1,3041.97,171.285Zm4.3-4.891,3.93,2.746-0.17-7.216Zm-3.75-1.743,0.08,4.1,2.15-2.655s0.01,0,.01-0.007h0v0l9.63-11.442-5.42,4.57-0.03.026Zm8.81-4.28,0.17,6.954,6.11-14.417Zm-13.49,1.186,3.9,1.975,4.32-3.637Zm17.26-9.286-14.52,7.346,7.64-1.546Z" transform="translate(-3035.13 -148.375)"/>
</svg>
