<svg xmlns="http://www.w3.org/2000/svg" xmlns:xlink="http://www.w3.org/1999/xlink" width="25.56" height="27" viewBox="0 0 25.56 27">
  <defs>
    <style>
      .cls-1 {
        fill: #fff;
        fill-rule: evenodd;
        filter: url(#filter);
      }
    </style>
    <filter id="filter" x="2842" y="147" width="25.56" height="27" filterUnits="userSpaceOnUse">
      <feOffset result="offset" dy="1" in="SourceAlpha"/>
      <feGaussianBlur result="blur"/>
      <feFlood result="flood" flood-color="#fff"/>
      <feComposite result="composite" operator="in" in2="blur"/>
      <feBlend result="blend" in="SourceGraphic"/>
      <feFlood result="flood-2" flood-color="#7d7d7d"/>
      <feComposite result="composite-2" operator="in" in2="SourceGraphic"/>
      <feBlend result="blend-2" in2="blend"/>
    </filter>
  </defs>
  <path id="Travel_Icon" data-name="Travel Icon" class="cls-1" d="M2854.79,173a13,13,0,1,1,12.77-13A12.9,12.9,0,0,1,2854.79,173Zm5.37-5.984a13.592,13.592,0,0,1-3.01,4.367,11.332,11.332,0,0,0,5.34-2.8A15.358,15.358,0,0,0,2860.16,167.015Zm-13.11,1.54a11.334,11.334,0,0,0,5.37,2.827,13.551,13.551,0,0,1-3.07-4.5A13.729,13.729,0,0,0,2847.05,168.555Zm8.41-3.048v5.546a11.755,11.755,0,0,0,3.48-4.63A11.647,11.647,0,0,0,2855.46,165.507Zm-4.89.766a11.744,11.744,0,0,0,3.54,4.78v-5.586A9.939,9.939,0,0,0,2850.57,166.273Zm10.06-.5a17.823,17.823,0,0,1,2.79,1.835,11.639,11.639,0,0,0,2.78-6.926h-4.7A17.662,17.662,0,0,1,2860.63,165.775Zm-17.26-5.091a11.7,11.7,0,0,0,2.74,6.885,15.067,15.067,0,0,1,2.77-1.987,17.7,17.7,0,0,1-.81-4.9h-4.7Zm12.09,3.483a13.242,13.242,0,0,1,3.94,1.023,16.513,16.513,0,0,0,.75-4.506h-4.69v3.483Zm-6.04-3.483a16.612,16.612,0,0,0,.68,4.3,11.131,11.131,0,0,1,4.01-.866v-3.438h-4.69Zm12.08-1.368h4.7a11.706,11.706,0,0,0-2.74-6.886,15.02,15.02,0,0,1-2.77,1.987A17.709,17.709,0,0,1,2861.5,159.316Zm-6.04,0h4.69a16.613,16.613,0,0,0-.68-4.305,11.154,11.154,0,0,1-4.01.867v3.438Zm-6.04,0h4.69v-3.484a13.242,13.242,0,0,1-3.94-1.023A16.147,16.147,0,0,0,2849.42,159.316Zm-6.05,0h4.7a17.656,17.656,0,0,1,.87-5.091,18.4,18.4,0,0,1-2.8-1.836A11.694,11.694,0,0,0,2843.37,159.316Zm12.09-10.369v5.585a9.918,9.918,0,0,0,3.54-.806A11.747,11.747,0,0,0,2855.46,148.947Zm-4.83,4.63a11.647,11.647,0,0,0,3.48.915v-5.545A11.74,11.74,0,0,0,2850.63,153.577Zm6.52-4.96a13.561,13.561,0,0,1,3.07,4.5,13.777,13.777,0,0,0,2.3-1.676A11.335,11.335,0,0,0,2857.15,148.617Zm-10.07,2.8a15.354,15.354,0,0,0,2.33,1.569,13.586,13.586,0,0,1,3.01-4.368A11.341,11.341,0,0,0,2847.08,151.416Z" transform="translate(-2842 -147)"/>
</svg>
