<svg xmlns="http://www.w3.org/2000/svg" width="76" height="76" viewBox="0 0 76 76">
  <defs>
    <style>
      .cls-1 {
        fill: #6d6d6d;
        fill-rule: evenodd;
      }
    </style>
  </defs>
  <path id="Icon" class="cls-1" d="M2951,1147a38,38,0,1,1,38-38A38.047,38.047,0,0,1,2951,1147Zm0-72a34,34,0,1,0,34,34A34.036,34.036,0,0,0,2951,1075Zm0,63a29,29,0,1,1,29-29A29.034,29.034,0,0,1,2951,1138Zm0-54a25,25,0,1,0,25,25A25.022,25.022,0,0,0,2951,1084Zm9,27h-9a2.006,2.006,0,0,1-2-2v-9a2,2,0,0,1,4,0v7h7A2,2,0,0,1,2960,1111Z" transform="translate(-2913 -1071)"/>
</svg>
