<svg xmlns="http://www.w3.org/2000/svg" width="83.22" height="50.19" viewBox="0 0 83.22 50.19">
  <defs>
    <style>
      .cls-1 {
        fill: #6d6d6d;
        fill-rule: evenodd;
      }
    </style>
  </defs>
  <path id="Icon" class="cls-1" d="M3311.19,1122.98a1.936,1.936,0,0,1-1.11-.34,15.8,15.8,0,0,1-4.3-21.81,15.485,15.485,0,0,1,9.93-6.71,15.174,15.174,0,0,1,4.29-.27,2.006,2.006,0,0,1-.02-0.81,24.488,24.488,0,0,1,10.08-15.86,24.127,24.127,0,0,1,18.27-4.03,24.482,24.482,0,0,1,18.6,15.59,1.907,1.907,0,0,1,.9-0.17,19.194,19.194,0,0,1,15.06,8.26,18.143,18.143,0,0,1,3.21,13.86,19.06,19.06,0,0,1-7.95,11.85,2,2,0,0,1-1.14.36l-65.82.08h0Zm7.62-25.16a12.062,12.062,0,0,0-2.31.23,11.594,11.594,0,0,0-7.4,5,11.78,11.78,0,0,0,2.72,15.91l64.53-.07a14.872,14.872,0,0,0,5.83-8.95,13.985,13.985,0,0,0-2.56-10.8,15.245,15.245,0,0,0-11.6-6.54,24.91,24.91,0,0,1,.45,4.6,2,2,0,0,1-1.98,2.02h-0.01a2.006,2.006,0,0,1-2-2,20.527,20.527,0,0,0-16.85-20.12,20.148,20.148,0,0,0-15.28,3.38,20.407,20.407,0,0,0-8.44,13.27,2.131,2.131,0,0,1-.34.8,15.359,15.359,0,0,1,3.86,1.89,2.012,2.012,0,0,1,.56,2.78,1.982,1.982,0,0,1-2.77.56A11.484,11.484,0,0,0,3318.81,1097.82Zm38.3-2.67a2.013,2.013,0,0,1-1.99-1.91,8.815,8.815,0,0,0-9.2-8.38,2.022,2.022,0,0,1-2.1-1.91,2,2,0,0,1,1.9-2.1,12.8,12.8,0,0,1,13.39,12.19,2,2,0,0,1-1.89,2.1A0.41,0.41,0,0,1,3357.11,1095.15Z" transform="translate(-3303.16 -1072.78)"/>
</svg>
